# xmcd
#
# Track frame offsets:
#	150
#	23392
#	47142
#	66310
#	88285
#	110665
#	131070
#	150810
#	168455
#	186345
#	210312
#	231775
#
# Disc length: 3474 seconds
#
# Revision: 0
# Processed by: cddbd v1.4PL0 Copyright (c) Steve Scherf et al.
# Submitted via: dBpowerAMP V4.0
#
DISCID=9c0d900c
DTITLE=Lalo Rodriguez - 12 grandes exitos
DYEAR=1900
DGENRE=
TTITLE0=ven devorame otra vez
TTITLE1=una sucursal
TTITLE2=amame
TTITLE3=si, te menti
TTITLE4=lo que me lastima
TTITLE5=despues de hacer el amor
TTITLE6=tu iluminas
TTITLE7=voy a escarbar tu cuerpo
TTITLE8=no tuve a nadie
TTITLE9=pero llegaste tu
TTITLE10=dame tu corazon
TTITLE11=tu no sabes querer
EXTD=
EXTT0=
EXTT1=
EXTT2=
EXTT3=
EXTT4=
EXTT5=
EXTT6=
EXTT7=
EXTT8=
EXTT9=
EXTT10=
EXTT11=
PLAYORDER=
